<?xml version="1.0" encoding="utf-8"?>
<!-- Generator: Adobe Illustrator 27.2.0, SVG Export Plug-In . SVG Version: 6.00 Build 0)  -->
<svg version="1.1" id="Capa_1" xmlns="http://www.w3.org/2000/svg" xmlns:xlink="http://www.w3.org/1999/xlink" x="0px" y="0px"
	 viewBox="0 0 100 100" style="enable-background:new 0 0 100 100;" xml:space="preserve">
<style type="text/css">
	.st0{clip-path:url(#SVGID_00000176724233363273883140000004407704943260052100_);}
	.st1{fill:#FFFFFF;}
	.st2{fill:#CCE4E5;}
	.st3{fill:#AED3D3;}
	.st4{fill:#B22234;}
	.st5{fill:#8C1126;}
	.st6{fill:#5B0218;}
	.st7{fill:#3C3B6E;}
	.st8{fill:#1E1E44;}
	.st9{fill:#C7C7C7;}
</style>
<g>
	<defs>
		<circle id="SVGID_1_" cx="50" cy="50" r="44.43"/>
	</defs>
	<clipPath id="SVGID_00000141448017707147916830000014093340110360018083_">
		<use xlink:href="#SVGID_1_"  style="overflow:visible;"/>
	</clipPath>
	<g style="clip-path:url(#SVGID_00000141448017707147916830000014093340110360018083_);">
		<path class="st1" d="M123.67,81.96c0,7.17-5.7,12.87-12.66,12.87H5.54c-6.96,0-12.66-5.7-12.66-12.87V17.83
			c0-7.17,5.7-11.55,12.66-11.55h105.48c6.96,0,12.66,4.38,12.66,11.55V81.96z"/>
		<path class="st2" d="M111.01,4.96H5.54l105.48,89.87c6.96,0,12.66-5.7,12.66-12.87V17.83C123.67,10.65,117.98,4.96,111.01,4.96z"
			/>
		<path class="st3" d="M111.01,4.96H5.54l118.14,36.28V17.83C123.67,10.65,117.98,4.96,111.01,4.96z"/>
		<g>
			<path class="st4" d="M-5.83,87.65c1.98,4.06,5.99,6.91,10.68,7.15c0.24,0,0.45,0.03,0.69,0.03h105.56c0,0,0.92-0.08,1.21-0.18
				c0.45-0.16,0.5-0.53,0.16-0.82l-0.11-0.11l-7.15-6.09H-5.83V87.65z"/>
			<polygon class="st4" points="24.76,19.09 -7.12,19.09 -7.12,25.95 32.8,25.95 			"/>
			<polygon class="st4" points="40.84,32.8 -7.12,32.8 -7.12,39.66 48.91,39.66 			"/>
			<polygon class="st4" points="56.9,46.52 -7.12,46.52 -7.12,53.48 64.92,53.48 			"/>
			<polygon class="st4" points="72.94,60.23 -7.12,60.23 -7.12,67.19 81.16,67.19 			"/>
			<polygon class="st4" points="91.34,75.81 89.13,73.94 -7.12,73.94 -7.12,80.9 97.2,80.9 			"/>
		</g>
		<path class="st1" d="M5.54,94.83c-0.24,0-0.45,0-0.69-0.03C5.09,94.83,5.3,94.83,5.54,94.83z"/>
		<g>
			<polygon class="st5" points="55.74,19.09 22.12,19.09 30.16,25.95 78.11,25.95 			"/>
			<polygon class="st5" points="46.28,39.66 121.69,39.66 99.36,32.8 38.21,32.8 			"/>
			<polygon class="st5" points="62.49,53.48 123.67,53.48 123.67,46.52 54.32,46.52 			"/>
			<polygon class="st5" points="78.58,67.19 123.67,67.19 123.67,60.23 70.41,60.23 			"/>
			<polygon class="st5" points="88.71,75.81 94.67,80.9 123.67,80.9 123.67,73.94 86.54,73.94 			"/>
		</g>
		<g>
			<polygon class="st6" points="51.55,19.09 68.3,24.23 73.89,25.95 123.67,25.95 123.67,19.09 			"/>
			<polygon class="st6" points="96.25,32.8 118.61,39.66 123.67,39.66 123.67,32.8 			"/>
			<path class="st6" d="M121.14,10.1c-0.37-0.5-0.76-0.95-1.19-1.4c-2.14-2.16-5.04-3.56-8.25-3.72c-0.21,0-0.45-0.03-0.66-0.03l0,0
				H5.54c-3.45,0-6.72,1.56-9.07,3.88c-0.92,0.98-1.71,2.08-2.29,3.3h19.78h14.93h93.48C122.04,11.42,121.62,10.73,121.14,10.1z"/>
		</g>
		<path class="st5" d="M122.38,87.65H102.6l8.41,7.17C115.97,94.83,120.3,91.93,122.38,87.65z"/>
		<path class="st7" d="M-7.12,17.83v35.44h56.75V4.96H4.69C-1.85,5.38-7.12,10.87-7.12,17.83z"/>
		<polygon class="st8" points="49.63,42.51 49.63,4.96 5.54,4.96 		"/>
		<polygon points="49.63,18.46 49.63,4.96 5.54,4.96 		"/>
		<g>
			<polygon class="st1" points="8.91,9.81 9.75,7.07 10.81,9.81 			"/>
			<polygon class="st1" points="20.3,9.81 21.15,7.07 21.99,9.81 			"/>
			<polygon class="st1" points="31.48,9.81 32.54,7.07 33.38,9.81 			"/>
			<polygon class="st1" points="42.87,9.81 43.72,7.07 44.77,9.81 			"/>
			<polygon class="st1" points="3.21,14.66 4.27,11.92 5.11,14.66 			"/>
			<polygon class="st1" points="14.61,14.66 15.45,11.92 16.51,14.66 			"/>
			<polygon class="st1" points="26,14.66 26.84,11.92 27.69,14.66 			"/>
			<polygon class="st1" points="37.18,14.66 38.02,11.92 39.08,14.66 			"/>
			<polygon class="st1" points="-2.27,19.51 -1.43,16.77 -0.58,19.51 			"/>
			<polygon class="st1" points="8.91,19.51 9.75,16.77 10.81,19.51 			"/>
			<polygon class="st1" points="20.3,19.51 21.15,16.77 21.99,19.51 			"/>
			<polygon class="st1" points="31.48,19.51 32.54,16.77 33.38,19.51 			"/>
			<polygon class="st1" points="42.87,19.51 43.72,16.77 44.77,19.51 			"/>
			<polygon class="st1" points="3.43,24.37 4.27,21.62 5.32,24.37 			"/>
			<polygon class="st1" points="14.82,24.37 15.66,21.62 16.51,24.37 			"/>
			<polygon class="st1" points="26,24.37 27.05,21.62 27.9,24.37 			"/>
			<polygon class="st1" points="37.39,24.37 38.23,21.62 39.08,24.37 			"/>
			<polygon class="st1" points="-2.27,29.01 -1.22,26.27 -0.37,29.01 			"/>
			<polygon class="st1" points="9.12,29.01 9.97,26.27 11.02,29.01 			"/>
			<polygon class="st1" points="20.51,29.01 21.36,26.27 22.2,29.01 			"/>
			<polygon class="st1" points="31.69,29.01 32.75,26.27 33.59,29.01 			"/>
			<polygon class="st1" points="43.09,29.01 43.93,26.27 44.77,29.01 			"/>
			<polygon class="st1" points="3.43,33.86 4.27,31.12 5.32,33.86 			"/>
			<polygon class="st1" points="14.82,33.86 15.66,31.12 16.51,33.86 			"/>
			<polygon class="st1" points="26,33.86 27.05,31.12 27.9,33.86 			"/>
			<polygon class="st1" points="37.39,33.86 38.23,31.12 39.29,33.86 			"/>
			<polygon class="st1" points="-2.06,38.71 -1.22,35.97 -0.37,38.71 			"/>
			<polygon class="st1" points="9.33,38.71 10.18,35.97 11.02,38.71 			"/>
			<polygon class="st1" points="20.51,38.71 21.36,35.97 22.41,38.71 			"/>
			<polygon class="st1" points="31.91,38.71 32.75,35.97 33.59,38.71 			"/>
			<polygon class="st1" points="43.09,38.71 44.14,35.97 44.98,38.71 			"/>
			<polygon class="st1" points="3.43,43.56 4.27,40.61 5.32,43.56 			"/>
			<polygon class="st1" points="14.82,43.56 15.66,40.61 16.51,43.56 			"/>
			<polygon class="st1" points="26,43.56 27.05,40.61 27.9,43.56 			"/>
			<polygon class="st1" points="37.39,43.56 38.23,40.61 39.08,43.56 			"/>
			<polygon class="st1" points="-2.27,48.2 -1.22,45.46 -0.37,48.2 			"/>
			<polygon class="st1" points="9.12,48.2 9.97,45.46 10.81,48.2 			"/>
			<polygon class="st1" points="20.3,48.2 21.36,45.46 22.2,48.2 			"/>
			<polygon class="st1" points="31.69,48.2 32.54,45.46 33.59,48.2 			"/>
			<polygon class="st1" points="43.09,48.2 43.93,45.46 44.77,48.2 			"/>
		</g>
	</g>
</g>
<g>
	<path class="st9" d="M49.98,1C29.57,1,10.84,14.16,3.87,33.32C-3.14,52.63,3,74.79,18.81,87.86c15.84,13.1,38.84,14.84,56.45,4.19
		s26.91-31.74,22.77-51.91C93.97,20.39,77.54,4.71,57.6,1.59C55.08,1.2,52.53,1,49.98,1 M89.46,67.82
		c-8.37,18.54-29.26,29-49.11,24.46C25.06,88.79,12.57,76.86,8.31,61.79C3.95,46.39,8.68,29.47,20.32,18.5
		c12.6-11.86,31.6-15.1,47.41-7.97c18.88,8.51,29.33,29.93,24.26,50.05C91.36,63.07,90.5,65.49,89.46,67.82
		C88.88,69.1,89.89,66.87,89.46,67.82"/>
</g>
</svg>
