<?xml version="1.0" encoding="utf-8"?>
<!-- Generator: Adobe Illustrator 27.2.0, SVG Export Plug-In . SVG Version: 6.00 Build 0)  -->
<svg version="1.1" id="Capa_1" xmlns="http://www.w3.org/2000/svg" xmlns:xlink="http://www.w3.org/1999/xlink" x="0px" y="0px"
	 viewBox="0 0 100 100" style="enable-background:new 0 0 100 100;" xml:space="preserve">
<style type="text/css">
	.st0{fill:#FFDA44;}
	.st1{fill:#D80027;}
	.st2{fill:#0052B4;}
	.st3{fill:#338AF3;}
	.st4{fill:#C7C7C7;}
</style>
<g>
	<path class="st0" d="M5.72,50C5.72,25.55,25.55,5.72,50,5.72S94.28,25.55,94.28,50L50,53.85L5.72,50z"/>
	<path class="st1" d="M11.65,72.14C19.3,85.37,33.61,94.28,50,94.28s30.7-8.9,38.35-22.14L50,69.25L11.65,72.14z"/>
	<path class="st2" d="M88.35,72.14c3.77-6.51,5.92-14.07,5.92-22.14H5.72c0,8.06,2.16,15.63,5.92,22.14H88.35z"/>
	<circle class="st0" cx="50" cy="50" r="15.4"/>
	<path class="st3" d="M50,59.62c-5.31,0-9.63-4.32-9.63-9.63v-5.78c0-5.31,4.32-9.63,9.63-9.63s9.63,4.32,9.63,9.63V50
		C59.62,55.31,55.31,59.62,50,59.62z"/>
	<path d="M65.4,26.9H53.85c0-2.13-1.72-3.85-3.85-3.85c-2.13,0-3.85,1.72-3.85,3.85H34.6c0,2.13,1.85,3.85,3.98,3.85h-0.13
		c0,2.13,1.72,3.85,3.85,3.85c0,2.13,1.72,3.85,3.85,3.85h7.7c2.13,0,3.85-1.72,3.85-3.85c2.13,0,3.85-1.72,3.85-3.85h-0.13
		C63.55,30.75,65.4,29.03,65.4,26.9z"/>
	<path class="st4" d="M49.98,1C29.57,1,10.84,14.16,3.87,33.32C-3.14,52.63,3,74.79,18.81,87.86c15.84,13.1,38.84,14.84,56.45,4.19
		c17.61-10.65,26.91-31.74,22.77-51.91C93.97,20.39,77.54,4.71,57.6,1.59C55.08,1.2,52.53,1,49.98,1 M89.46,67.82
		c-8.37,18.54-29.26,29-49.11,24.46C25.06,88.79,12.57,76.86,8.31,61.79c-4.36-15.4,0.37-32.32,12.01-43.29
		c12.6-11.86,31.6-15.1,47.41-7.97c18.88,8.51,29.33,29.93,24.26,50.05C91.36,63.07,90.5,65.49,89.46,67.82
		C88.88,69.1,89.89,66.87,89.46,67.82"/>
</g>
</svg>
